<?xml version="1.0" standalone="no"?>
<!DOCTYPE svg PUBLIC "-//W3C//DTD SVG 20010904//EN"
 "http://www.w3.org/TR/2001/REC-SVG-20010904/DTD/svg10.dtd">
<svg version="1.0" xmlns="http://www.w3.org/2000/svg"
 width="1024.000000pt" height="1024.000000pt" viewBox="0 0 1024.000000 1024.000000"
 preserveAspectRatio="xMidYMid meet">
<metadata>
Created by potrace 1.14, written by Peter Selinger 2001-2017
</metadata>
<g transform="translate(0.000000,1024.000000) scale(0.100000,-0.100000)"
fill="#000000" stroke="none">
<path d="M2099 10236 c-2 -2 -31 -6 -64 -10 -65 -7 -110 -14 -215 -33 -83 -15
-296 -77 -355 -103 -11 -5 -49 -21 -85 -36 -295 -120 -618 -358 -836 -618
-261 -311 -435 -675 -505 -1056 -38 -212 -38 -158 -35 -3300 1 -1669 5 -3046
8 -3060 3 -14 9 -50 13 -80 14 -112 94 -419 117 -448 6 -6 8 -12 5 -12 -7 0
51 -137 93 -220 31 -61 143 -251 161 -274 5 -6 41 -54 81 -106 115 -150 326
-354 468 -450 19 -13 37 -27 40 -31 8 -10 201 -124 270 -158 207 -105 487
-192 695 -217 28 -3 70 -10 95 -15 52 -9 6132 -7 6170 3 14 4 48 9 75 13 28 3
84 13 125 21 380 80 732 254 1025 506 135 117 192 176 320 335 6 7 15 18 20
25 39 48 153 230 198 318 78 151 171 395 191 505 1 6 5 19 9 30 3 11 8 36 11
55 3 19 8 46 11 60 12 63 15 79 22 145 4 39 8 1438 8 3110 0 3044 0 3061 -31
3230 -4 24 -35 158 -49 215 -27 107 -98 285 -166 418 -113 219 -243 396 -419
572 -122 121 -136 134 -250 218 -47 34 -90 67 -97 72 -7 6 -14 10 -17 10 -3 0
-25 13 -49 30 -189 127 -533 259 -797 304 -47 8 -103 18 -125 22 -40 8 -6128
17 -6136 10z"/>
</g>
</svg>
